<?xml version="1.0" encoding="UTF-8" standalone="no"?>
<!-- Generator: Adobe Illustrator 19.0.0, SVG Export Plug-In . SVG Version: 6.00 Build 0)  -->

<svg
   xmlns:dc="http://purl.org/dc/elements/1.1/"
   xmlns:cc="http://creativecommons.org/ns#"
   xmlns:rdf="http://www.w3.org/1999/02/22-rdf-syntax-ns#"
   xmlns:svg="http://www.w3.org/2000/svg"
   xmlns="http://www.w3.org/2000/svg"
   xmlns:sodipodi="http://sodipodi.sourceforge.net/DTD/sodipodi-0.dtd"
   xmlns:inkscape="http://www.inkscape.org/namespaces/inkscape"
   version="1.1"
   id="layer"
   x="0px"
   y="0px"
   viewBox="-153 -46 1000 1285.2737"
   xml:space="preserve"
   sodipodi:docname="lumion-france-logo-vector.svg"
   width="1000"
   height="1285.2737"
   inkscape:version="0.92.4 (5da689c313, 2019-01-14)"><metadata
   id="metadata17"><rdf:RDF><cc:Work
       rdf:about=""><dc:format>image/svg+xml</dc:format><dc:type
         rdf:resource="http://purl.org/dc/dcmitype/StillImage" /><dc:title></dc:title></cc:Work></rdf:RDF></metadata><defs
   id="defs15" /><sodipodi:namedview
   pagecolor="#ffffff"
   bordercolor="#111111"
   borderopacity="1"
   objecttolerance="10"
   gridtolerance="10"
   guidetolerance="10"
   inkscape:pageopacity="0"
   inkscape:pageshadow="2"
   inkscape:window-width="1920"
   inkscape:window-height="1017"
   id="namedview13"
   showgrid="false"
   fit-margin-top="0"
   fit-margin-left="0"
   fit-margin-right="0"
   fit-margin-bottom="0"
   inkscape:zoom="0.51189325"
   inkscape:cx="462.39819"
   inkscape:cy="311.17121"
   inkscape:window-x="1912"
   inkscape:window-y="-8"
   inkscape:window-maximized="1"
   inkscape:current-layer="layer" />
<style
   type="text/css"
   id="style2">
	.st0{fill:#427488;}
	.st1{fill:#FFFFFF;}
	.st2{fill:#859EAD;}
</style>
<rect
   x="-153"
   y="-46"
   class="st0"
   width="997.68701"
   height="1065.2788"
   id="rect4"
   style="fill:#427488;stroke-width:2.57003331" />
<path
   class="st1"
   d="m 169.53919,1021.0779 0.51401,0.257 z m 597.53277,-57.82578 -3.34104,-4.88306 -3.34105,-4.62606 c -2.31303,-3.34105 -4.88306,-6.42509 -7.45309,-9.50913 l -1.54202,-2.05602 c 3.08404,-24.67232 5.91107,-49.85865 7.19609,-75.30198 0.77101,-13.36418 1.02801,-26.72835 1.02801,-40.09252 0,-6.68209 -0.257,-13.36418 -0.77101,-20.30327 -0.257,-3.34104 -0.514,-6.93909 -0.77101,-10.28013 v -0.25701 -1.02801 -0.257 -0.51401 l -0.257,-1.28502 -0.51401,-2.82703 c -0.257,-1.79903 -0.514,-3.59805 -1.02801,-5.39707 -3.08404,-14.64919 -8.22411,-28.52738 -15.4202,-41.12054 l -2.31303,-3.85505 c 6.42508,-5.39707 13.36417,-10.53714 20.56027,-14.64919 4.11205,-2.57003 8.73811,-4.11205 13.87818,-4.88306 4.88306,-0.77101 10.02313,-1.28502 14.90619,-2.82704 -4.88306,1.02801 -10.02313,1.02801 -15.1632,1.28502 -5.14006,0.257 -10.28013,1.28501 -15.16319,3.59804 -7.7101,3.59805 -15.1632,7.7101 -22.35929,12.59317 -5.65408,-8.99512 -12.33616,-17.21923 -19.01825,-24.92933 -8.99512,-10.28013 -18.50424,-19.53225 -28.01336,-28.52737 l -14.39219,-13.10717 -7.1961,-6.42508 -1.79902,-1.54202 -0.257,-0.257 v 0 0 l -0.51401,-0.51401 -0.77101,-0.77101 -3.34104,-3.34104 c -17.99024,-17.73324 -35.20946,-36.23748 -50.37266,-56.28373 -7.45309,-9.76613 -14.39218,-20.04626 -20.81727,-30.5834 2.82704,-2.31303 5.65408,-4.62606 8.73812,-6.93909 4.62606,-3.59805 9.50912,-7.9671 12.85016,-13.10717 6.68209,-10.02313 12.07916,-20.30327 16.19121,-31.61141 v 0 -0.25701 c 1.54202,-7.9671 3.59805,-15.6772 4.36906,-23.90131 v 0 0 c -0.257,-11.30814 -5.65407,-21.58828 -5.14007,-32.89642 -1.28501,11.05114 3.59805,21.84528 3.34105,32.89642 -1.28502,7.7101 -3.59805,15.4202 -5.65408,23.1303 -4.36905,10.53714 -10.53713,20.56027 -17.21922,29.81239 -3.34104,4.62606 -7.4531,7.96711 -12.33616,11.30815 -2.82704,1.79902 -5.65407,3.85505 -8.73811,5.91108 -5.39707,-9.25212 -10.02313,-18.76125 -14.39219,-28.52738 -9.76613,-23.1303 -16.19121,-47.80262 -17.47623,-73.24595 -1.28502,-25.44333 2.57003,-51.14366 10.79414,-75.55898 -10.02313,23.64431 -16.19121,49.34464 -16.96222,75.55898 -0.77101,26.21434 3.59805,52.42868 12.07916,77.61501 8.22411,24.41532 19.78926,47.28862 33.41043,68.8769 l -0.77101,-0.25701 c -4.11205,-2.31303 -8.99511,-3.85505 -13.87818,-4.36905 -4.88306,-0.51401 -9.50912,0 -14.13518,1.02801 -8.73812,2.31303 -17.73323,4.36906 -26.72835,3.59805 -8.99512,-0.51401 -17.73323,-3.59805 -25.95734,-7.1961 7.96711,4.36906 16.70522,7.96711 25.95734,8.99512 9.25212,1.02801 18.50424,-0.257 27.49936,-2.05603 4.11205,-0.77101 8.73811,-1.02801 12.85017,-0.257 4.36905,0.77101 8.2241,2.31303 11.82215,4.62606 3.59805,2.05602 6.93909,4.88306 10.53714,7.45309 12.59316,18.76125 26.72834,36.49448 41.37753,53.4567 l 3.34105,3.59805 0.77101,1.02801 0.514,0.51401 0.51401,0.514 1.54202,1.79903 6.68209,7.19609 13.10717,14.13518 c 8.48111,9.25212 16.70522,18.76125 23.90131,28.52737 7.19609,9.76613 13.36417,19.78926 18.24724,30.06939 4.62606,10.28014 7.7101,21.07428 8.99511,31.86842 l 0.51401,4.11205 0.257,2.05603 v 1.28502 0.514 0.25701 -0.77101 0.257 c 0,3.08404 0,6.16808 0,8.99512 0,6.16808 -0.257,12.07916 -0.77101,18.24724 -0.77101,12.33616 -2.31303,24.67232 -3.85505,37.00848 -1.79902,12.33616 -3.85505,24.67232 -6.16808,37.26548 -20.56026,-17.21922 -42.66255,-31.61141 -64.76484,-44.46158 -6.93909,-3.85505 -13.87818,-7.7101 -20.81727,-11.56515 0.77101,-7.45309 1.54202,-14.90619 2.05603,-22.35929 0.77101,-11.05114 1.28501,-22.35929 0.257,-33.66744 -0.77101,-8.99511 -2.31303,-17.73323 -4.88306,-26.21434 l 0.514,0.25701 c 1.02802,-2.31303 3.34105,-4.62607 6.16808,-6.42509 2.82704,-1.79902 5.91108,-3.59805 8.99512,-4.88306 6.42508,-2.82704 13.10717,-5.14007 19.78926,-6.93909 -6.93909,0.77101 -14.13519,2.05602 -21.07428,3.85505 -3.34104,1.02801 -6.93909,2.05602 -10.28013,3.85505 -1.79902,0.77101 -3.34104,1.79902 -4.88306,2.82703 l -1.28502,1.02802 -0.257,-0.51401 c -3.85505,-10.79414 -8.73812,-20.81727 -14.13519,-30.32639 -1.28501,-2.31303 -2.82703,-4.88307 -4.11205,-7.1961 -1.54202,-2.57003 -3.08404,-4.88306 -4.88306,-6.93909 -3.34105,-4.62606 -6.93909,-8.73811 -10.53714,-12.85016 -7.19609,-8.22411 -14.90619,-15.93421 -22.10229,-23.90131 -7.19609,-7.96711 -14.13518,-16.19121 -19.78926,-25.18633 -5.65407,-8.99512 -10.02313,-19.27525 -11.05114,-30.06939 0.257,10.79414 3.85505,21.58828 8.99512,31.3544 5.14006,9.76613 11.56515,18.76125 18.24723,27.24236 6.68209,8.48111 13.62118,16.96222 20.30327,25.44333 l 0.51401,0.77101 c -2.05603,0.257 -4.11206,0.77101 -5.91108,1.28502 -3.08404,1.02801 -5.91108,2.31303 -8.48111,4.11205 -2.57004,1.79902 -5.14007,3.85505 -6.93909,6.42508 -1.79903,2.57004 -2.31303,5.91108 -1.28502,8.73812 -0.51401,-3.08404 0.77101,-5.91108 2.82704,-7.7101 2.05602,-2.05603 4.36905,-3.34105 6.93909,-4.36906 2.57003,-1.02801 5.39707,-1.79902 8.22411,-2.05603 2.82703,-0.257 5.65407,-0.514 7.9671,0 l 0.257,-1.79902 c 1.79903,2.57003 3.59805,5.14007 5.14007,7.7101 1.28502,2.31303 2.82704,4.62606 3.85505,6.68209 1.28502,2.31303 2.31303,4.88306 3.59805,7.19609 4.62606,9.50912 8.48111,19.53225 11.05114,29.55538 2.57003,10.02314 4.11205,20.30327 4.11205,30.5834 0,10.28014 -1.02801,20.56027 -2.57003,31.09741 -0.77101,4.88306 -1.54202,10.02313 -2.57003,14.90619 l -1.28502,-0.77101 c -13.10717,-6.68208 -25.70033,-13.36417 -37.77949,-20.56026 -24.15832,-14.6492 -46.0036,-31.35441 -62.70882,-52.68569 -16.96222,-21.07428 -29.29838,-46.2606 -38.5505,-73.24595 l -1.79902,-5.14007 -0.77101,-2.57003 -0.77101,-2.31303 -3.08404,-10.53714 c -2.05603,-6.93909 -4.11206,-13.87818 -5.91108,-20.81727 -3.85505,-13.87818 -7.19609,-28.01337 -10.02313,-42.14855 -5.65407,-28.27036 -8.99512,-56.79773 -8.73811,-85.58211 0.257,-28.52737 4.11205,-57.31174 11.56515,-85.0681 1.02801,-3.59805 1.79902,-6.9391 2.82703,-10.53714 l 1.54202,-5.14007 1.54202,-5.39707 c 2.05603,-6.93909 4.36906,-13.87818 6.68209,-20.81727 1.79903,-5.14007 3.59805,-10.53714 5.39707,-15.6772 3.85505,-5.14007 8.48111,-10.28014 13.10717,-14.9062 5.39707,-5.14006 11.05115,-10.02313 16.70522,-14.64919 2.82704,-2.31303 5.91108,-4.62606 8.99512,-6.68208 l 4.62606,-3.34105 0.514,-0.514 0.25701,-0.25701 v 0 h 0.257 l 1.28502,-0.77101 2.31303,-1.28501 c 3.34104,-1.54202 6.68208,-2.57004 10.28013,-3.34105 3.59805,-0.77101 7.4531,-1.28501 11.05114,-3.34104 3.59805,-1.79902 6.16808,-4.62606 8.73812,-7.4531 l 3.59804,-4.36906 c 1.02802,-1.54202 2.05603,-3.34104 2.82704,-4.88306 3.08404,-6.93909 4.62606,-14.39219 5.91108,-21.84528 1.28501,-7.4531 2.05602,-14.9062 3.34104,-22.10229 -1.54202,7.19609 -2.57003,14.64919 -4.36906,22.10229 -1.54202,7.19609 -3.34104,14.64919 -6.42508,21.33127 -0.77101,1.54202 -1.79902,3.08404 -2.82704,4.62606 l -3.59804,4.11206 c -2.57004,2.82703 -5.14007,5.14007 -8.48111,6.68209 -3.08404,1.54202 -6.68209,2.05602 -10.53714,2.82703 -3.85505,0.51401 -7.4531,1.54202 -11.05114,3.08404 l -2.57004,1.28502 -1.28501,0.77101 h -0.25701 v 0 h -0.257 l -0.257,0.257 -0.51401,0.51401 -4.62606,3.08404 c -3.08404,2.05603 -6.16808,4.11205 -9.25212,6.42508 -6.16808,4.36906 -12.07916,8.99512 -17.73323,14.13519 -1.54202,1.54202 -3.34104,3.08404 -4.88306,4.62606 1.54202,-4.11206 2.82703,-7.96711 4.36905,-12.07916 10.02313,-27.75636 20.56027,-55.25572 29.81239,-83.26908 4.88306,-14.13519 8.73811,-28.52737 11.05114,-43.43357 l 0.25701,-1.79902 7.19609,-0.77101 0.51401,0.77101 c 3.59804,5.14007 11.56515,5.39707 26.72834,-5.65407 15.1632,-11.05115 21.84529,-29.81239 21.84529,-29.81239 0,0 -19.78926,0.514 -34.95246,11.56515 -12.07915,8.73811 -15.6772,15.4202 -14.90619,20.30326 l -5.65407,0.51401 c 1.79902,-13.10717 1.79902,-26.72835 0.514,-39.83552 -1.54202,-14.90619 -5.14006,-29.29838 -8.99511,-43.43356 -3.85505,-14.13519 -7.96711,-28.27037 -11.56515,-42.662564 2.82703,14.392194 6.42508,28.784384 9.50912,43.176564 3.08404,14.39219 5.91108,28.78438 6.93909,43.43357 1.02801,14.64919 -0.257,29.04137 -3.08404,43.17656 -2.31303,11.82215 -5.91108,23.1303 -10.02313,34.69545 l -9.25212,-3.59805 c 2.05603,-4.62606 0.257,-12.07915 -9.25212,-23.6443 -11.82215,-14.6492 -30.8404,-20.04627 -30.8404,-20.04627 0,0 1.54202,19.78926 13.36417,34.43845 11.82216,14.64919 19.53226,16.19121 24.41532,12.33616 l 0.51401,-0.257 10.02313,3.85505 -1.79903,4.36906 c -13.62117,35.20945 -29.04137,69.90491 -43.43356,105.11436 -0.77101,-1.79902 -1.79903,-3.59804 -3.08404,-5.39707 -5.14007,-7.9671 -12.33616,-13.87818 -19.27525,-19.53225 -6.93909,-5.65407 -14.39219,-10.53714 -20.56027,-17.21922 -2.82704,-3.34105 -5.39707,-6.9391 -6.42508,-11.30815 -1.02802,-4.36906 0.257,-8.99512 2.05602,-12.85017 -2.31303,3.85505 -3.59804,8.48111 -3.08404,12.85017 0.51401,4.62606 3.08404,8.73811 5.91108,12.33616 5.91108,7.19609 13.10717,12.59316 19.53225,18.50424 6.68209,5.91108 12.85017,12.07916 17.21923,19.53225 2.05602,3.34105 3.34104,7.1961 4.11205,10.79414 -6.68209,16.96222 -13.10717,34.18145 -18.76124,51.65767 -1.79903,5.39708 -3.08404,10.79415 -4.62606,16.19122 l -0.25701,-2.31303 c -8.48111,1.02801 -16.70521,0.257 -24.92932,-2.05603 -8.22411,-2.31303 -15.93421,-5.91108 -23.1303,-10.53714 -14.39219,-9.25212 -26.21434,-22.35929 -35.72347,-36.75148 -9.25212,-14.64919 -16.19121,-30.8404 -19.78925,-47.80262 -3.34105,-16.96222 -3.08404,-34.95245 3.34104,-50.88666 3.08404,-7.9671 8.22411,-15.1632 14.90619,-20.56027 6.42509,-5.65407 14.13519,-9.76612 21.84529,-14.13518 7.7101,-4.11205 15.6772,-8.22411 22.8733,-13.36417 3.59804,-2.57004 7.19609,-5.39707 10.28013,-8.48111 3.08404,-3.08404 6.42508,-6.16808 9.25212,-9.50913 5.65407,-6.68208 10.28013,-14.39219 13.62118,-22.8733 3.08404,-8.2241 4.88306,-16.96222 5.65407,-25.95733 1.28502,-17.73323 -1.54202,-35.20946 -4.88306,-52.42868 3.08404,17.21922 5.39707,34.95245 4.11205,52.42868 -0.77101,8.73811 -2.57003,17.47622 -5.91108,25.44333 -3.34104,7.9671 -7.9671,15.6772 -13.62117,22.10229 -2.82704,3.34104 -5.91108,6.42508 -9.25212,9.25212 -3.08404,3.08404 -6.68209,5.65407 -10.28014,8.2241 -7.19609,4.88307 -14.90619,8.99512 -22.87329,12.85017 -7.7101,4.11205 -15.67721,8.22411 -22.6163,14.13518 -3.34104,2.82704 -6.68209,6.16808 -9.25212,9.76613 -2.82704,3.59805 -4.88306,7.7101 -6.68209,11.82215 -3.59804,8.22411 -5.39707,17.21923 -6.16808,26.21434 -0.514,8.99512 0,17.99024 1.54202,26.72835 3.34105,17.73323 10.02313,34.43845 19.53226,49.60165 9.50912,15.16319 21.58828,28.78437 36.75148,39.06451 7.45309,5.14006 15.6772,9.25212 24.41531,11.82215 8.22411,2.57003 17.21923,3.34104 25.70034,2.82704 -5.65408,22.35929 -9.25212,45.48959 -10.53714,68.61989 -0.51401,9.50912 -0.77101,19.01824 -0.51401,28.52737 -11.30814,-4.36906 -22.35929,-9.50913 -32.89642,-15.67721 -14.39219,-8.2241 -27.75636,-18.24723 -40.09253,-29.55538 -24.92932,-22.35929 -45.48959,-49.60164 -63.73682,-78.12902 -18.24724,-28.78437 -34.18145,-59.11076 -50.11566,-89.43716 -3.34104,-6.42508 -6.68208,-12.85017 -10.02313,-19.27525 3.59805,-3.08404 6.93909,-6.93909 9.76613,-11.05114 2.82704,-4.36906 5.14007,-8.99512 6.93909,-13.87818 3.34104,-9.76613 4.62606,-19.53226 5.91108,-29.29838 1.28501,-9.76613 2.31303,-19.53226 5.65407,-28.78438 1.54202,-4.62606 3.59805,-8.99511 6.42509,-13.10717 2.82703,-3.85505 6.42508,-7.4531 10.53713,-10.28013 -4.11205,2.57003 -7.9671,5.91107 -11.05114,9.76613 -3.08404,3.85505 -5.65407,8.2241 -7.4531,12.85016 -3.85505,9.25212 -5.39707,19.27525 -7.19609,28.78438 -1.79903,9.76612 -3.59805,19.27525 -7.4531,28.01336 -3.34104,8.22411 -8.48111,15.1632 -14.90619,20.56027 -11.56515,-22.10229 -23.64431,-43.94757 -37.00848,-65.02185 31.61141,56.02673 54.2277,116.16551 85.32511,172.96325 -5.91108,5.65407 -13.10717,10.02313 -21.07428,13.10717 -8.99512,3.59805 -18.76124,5.65408 -28.27037,6.42509 -9.76612,0.77101 -19.53225,0 -29.04137,-2.57004 -4.62606,-1.28501 -9.25212,-3.08404 -13.36418,-5.39707 -4.11205,-2.57003 -8.2241,-5.39707 -12.33616,-8.22411 -4.11205,-2.82703 -8.2241,-5.91107 -12.85016,-8.2241 -2.31303,-1.28502 -4.62606,-2.05603 -6.93909,-3.08404 l -7.1961,-2.57004 c -9.50912,-3.34104 -19.01825,-6.16808 -28.78437,-8.99511 -19.27525,-5.65408 -38.2935,-11.56515 -56.79774,-19.53226 18.24724,8.48111 37.26548,14.64919 56.28373,21.07428 9.50912,3.08404 19.01825,6.42508 28.27037,9.76612 l 6.93909,2.57004 c 2.31303,1.02801 4.62606,1.79902 6.68209,3.08404 4.36905,2.31303 8.2241,5.14006 12.33616,8.2241 3.85505,3.08404 7.9671,6.16808 12.33616,8.73812 4.36905,2.82704 9.25212,4.88306 14.13518,6.16808 9.76613,3.08404 20.30326,3.85505 30.5834,3.59805 10.28013,-0.51401 20.56026,-2.31303 30.06939,-5.91108 7.9671,-2.82704 15.6772,-6.93909 22.10229,-12.85017 1.02801,2.05603 2.05602,3.85505 3.34104,5.91108 17.21922,30.06939 37.00848,59.11077 61.9378,84.04009 12.59317,12.33616 26.21435,23.64431 41.12054,33.41044 13.36417,8.73811 28.01336,16.19121 42.91956,22.10228 1.02801,13.62118 2.57003,27.24236 4.62606,40.60653 0.514,3.08404 1.02801,6.42508 1.54202,9.50912 -13.87818,-2.31303 -27.49936,-6.42508 -40.86353,-11.82215 -16.44822,-6.42508 -32.63943,-14.39219 -48.83064,-22.10229 -16.44821,-7.7101 -33.15343,-15.4202 -50.88666,-21.07427 -17.73323,-5.65407 -36.49448,-8.99512 -54.99872,-8.73811 -2.31303,0 -4.62606,0.257 -6.93909,0.257 -2.05602,0 -4.36905,0.257 -6.42508,0.257 -4.36906,0 -8.73811,-0.257 -13.10717,-0.77101 -8.73811,-0.77101 -17.47623,-2.31303 -25.95734,-4.62606 C 154.633,545.8787 137.92778,539.19661 122.50758,530.20149 107.08738,521.46338 92.69519,510.41223 80.35903,497.30506 68.27988,484.19789 58.25675,468.52069 52.85968,451.30147 c 4.62606,17.47622 13.87818,33.66743 25.70033,47.54561 11.82215,13.87818 25.95734,25.70034 41.37754,35.46646 15.4202,9.76613 32.38242,17.47623 49.85865,22.8733 8.73811,2.57004 17.73323,4.88307 26.98535,6.16808 4.62606,0.77101 9.25212,1.02802 13.87818,1.28502 2.31303,0 4.62606,0.257 6.93909,0.257 2.31303,0 4.36905,0 6.68208,0 17.47623,0.51401 34.69546,4.36906 51.14367,10.53714 16.44821,6.16808 32.38242,14.13518 48.31663,22.61629 15.9342,8.48111 31.86841,17.21922 48.83063,24.67232 16.19121,7.19609 33.41044,13.10717 51.40067,16.19121 1.02801,4.88306 2.05603,9.50912 3.08404,14.13519 1.54202,7.19609 3.34104,14.64919 5.14007,21.84528 l 2.82703,10.79414 0.77101,2.82704 0.77101,2.82703 1.54202,5.39707 c 4.36906,14.64919 9.50913,29.04138 16.19121,43.43357 6.42509,14.13518 14.39219,28.01336 23.90132,40.86353 3.85505,5.14007 7.7101,10.28013 11.82215,14.90619 l -4.36906,0.77101 c -13.10717,2.57004 -26.21434,5.91108 -38.8075,9.50913 -14.9062,4.11205 -29.29838,8.99512 -43.69057,13.36417 -18.50424,-12.07916 -37.77949,-22.10229 -56.28373,-32.38242 -19.53226,-11.05114 -38.2935,-23.1303 -54.22771,-38.2935 l -25.18632,-23.1303 c -8.48111,-7.7101 -17.21923,-15.4202 -26.98536,-22.35929 -9.50912,-6.93909 -20.30326,-12.85017 -31.61141,-16.70522 -11.30814,-4.11205 -23.1303,-6.42508 -34.69545,-7.19609 -2.82703,-0.257 -5.91107,-0.51401 -8.73811,-0.51401 -2.82704,0 -5.65407,-0.257 -8.73811,-0.257 -4.11206,0 -8.22411,0 -12.33616,0 l -0.25701,-7.19609 0.77101,-0.51401 c 5.39707,-3.08404 6.68209,-11.05114 -2.82703,-27.24236 -9.50913,-16.19121 -27.49936,-24.67232 -27.49936,-24.67232 0,0 -1.54202,19.78926 7.9671,35.98047 7.4531,12.85017 13.62118,17.21923 18.76125,16.96222 l 0.257,6.68209 h -2.05603 c -11.56515,0.257 -22.8733,0.77101 -33.92444,0 -11.05114,-0.77101 -22.10229,-2.82704 -31.86841,-7.4531 -2.57004,-1.02801 -4.88307,-2.57003 -7.1961,-3.85505 l -3.59804,-2.31303 -3.59805,-2.31303 C 54.4017,659.73117 49.77564,656.64713 45.14958,653.30609 26.90234,639.94191 9.6831096,624.77872 -5.9940904,608.58751 -21.67129,592.1393 -36.320484,574.66307 -48.142637,554.87381 c 11.051143,20.04626 24.929327,38.2935 40.3495266,55.25572 15.4202,16.96222 31.8684104,32.89642 50.1156504,47.03161 4.62606,3.59805 9.25212,6.93909 13.87818,10.28013 l 3.59805,2.31303 3.59804,2.31303 c 2.57004,1.54202 5.14007,3.08404 7.7101,4.36906 10.53714,5.39707 22.35929,8.22411 33.92444,9.50912 11.56515,1.28502 23.1303,1.28502 34.43845,1.28502 5.65408,0 11.30815,0.257 16.96222,0.51401 2.82704,0.257 5.39707,0.257 8.48111,0.514 2.82704,0.25701 5.65408,0.51401 8.22411,0.77101 4.62606,0.51401 9.25212,1.28502 13.62118,2.31303 l -2.05603,5.39707 c -4.36906,-3.08404 -12.07916,-1.79902 -24.67232,8.22411 -14.90619,11.56515 -20.56027,30.5834 -20.56027,30.5834 0,0 19.78926,-1.28502 34.69545,-12.85017 14.39219,-11.30815 16.44822,-18.76124 13.10717,-23.90131 l 2.82704,-6.93909 c 5.14007,1.28502 10.28013,2.82704 15.1632,4.88306 10.02313,4.11206 19.53225,9.76613 28.01336,16.44822 8.73811,6.68208 16.96222,14.39218 24.92933,22.10228 l 24.15831,23.90131 c 16.70522,16.70522 36.23747,30.3264 55.76972,42.40556 13.87819,8.48111 27.75637,16.70522 41.12054,25.18633 -2.31303,0.77101 -4.36906,1.28501 -6.68209,2.05602 -24.41532,7.4531 -49.08764,13.87818 -74.01696,16.96222 -12.33616,1.54202 -24.92932,2.31303 -37.52249,2.05603 -6.16808,0 -12.59316,-0.51401 -18.76124,-1.02801 l -4.62606,-0.51401 -4.62606,-0.77101 c -3.08404,-0.51401 -6.16808,-1.02801 -9.50913,-1.54202 -11.82215,-2.05603 -23.3873,-4.62606 -35.46646,-7.19609 -3.59804,-1.54202 -6.93909,-3.08404 -10.53713,-4.62606 C 165.68414,826.26934 154.376,819.07325 143.58186,811.62015 121.73657,796.45695 100.6623,779.49473 77.532,765.87355 54.6587,751.99537 31.2714,738.8882 8.1410896,725.26702 -14.7322,711.64585 -37.348497,696.99666 -58.165768,680.29144 -37.6055,697.51066 -15.24621,712.41686 7.3700796,726.80904 29.98638,740.94423 53.37368,754.5654 75.73297,768.70059 c 22.8733,13.87818 43.17656,31.35441 65.02185,47.03161 8.22411,5.91108 16.96222,11.82216 25.70033,16.96222 -6.68208,-1.02801 -13.62117,-1.79902 -20.56026,-2.31303 -13.62118,-0.77101 -27.24236,1.02802 -40.34953,4.88307 -6.42508,1.79902 -12.85017,4.11205 -18.76124,6.68208 -3.08404,1.28502 -6.16808,2.57004 -8.99512,4.11206 -2.82704,1.28501 -5.65407,2.82703 -8.73811,4.11205 -23.38731,10.28013 -48.57364,16.19121 -74.0169704,21.07428 -25.4433296,4.88306 -51.1436606,8.99511 -76.0729846,16.44821 25.186327,-6.16808 50.886665,-8.99512 76.8439946,-12.33616 25.7003404,-3.34104 51.6576804,-8.22411 76.3300004,-17.47623 3.08404,-1.02801 6.16808,-2.31303 9.25212,-3.59805 2.82703,-1.28501 5.91107,-2.31303 8.99511,-3.34104 5.91108,-2.05603 12.07916,-4.11205 17.99024,-5.39707 12.07915,-2.82704 24.67232,-3.59805 36.75148,-2.57003 12.33616,1.02801 24.67232,4.36905 37.00848,7.7101 12.33616,3.34104 25.18632,6.93909 38.03649,9.76612 3.34104,0.77101 6.42508,1.28502 9.76613,2.05603 l 4.88306,1.02802 5.14007,0.77101 c 6.68209,1.02801 13.36417,1.79902 20.04626,2.31303 13.36417,1.02801 26.98535,0.77101 40.34952,-0.25701 26.72835,-2.05602 52.94269,-7.19609 78.38602,-13.62118 25.44333,-6.16808 50.37266,-13.36417 75.30198,-19.01824 21.84529,-4.88307 43.69057,-8.73812 65.27885,-10.02313 8.99512,7.45309 18.24724,14.13518 27.75636,20.56026 12.85017,8.48111 25.95734,16.44822 38.80751,23.64431 12.59316,7.1961 24.92932,14.64919 37.00848,22.35929 24.15831,15.4202 46.5176,32.12542 65.79285,51.65767 4.36906,4.36906 8.73812,8.99512 12.85017,13.87818 -2.31303,-1.02801 -4.36906,-2.05602 -6.68209,-3.08404 -22.35929,-10.02313 -45.48959,-16.70521 -69.3909,-20.81727 -23.64431,-3.85505 -48.05962,-5.14006 -71.96094,-2.31303 -46.7746,5.65408 -91.75019,18.24724 -137.49678,21.84529 -5.65408,0.514 -11.56515,0.77101 -17.21923,0.77101 -5.65407,0 -11.30814,-0.51401 -16.96222,-1.02802 -11.30814,-1.28501 -22.87329,-3.08404 -34.43845,-4.62606 -11.56515,-1.54202 -23.3873,-2.57003 -34.95245,-1.79902 -5.91108,0.51401 -11.56515,1.28502 -17.21922,3.08404 -5.65408,1.79902 -10.79414,4.36906 -15.4202,7.9671 4.88306,-3.34104 10.02313,-5.65407 15.6772,-6.93909 5.65407,-1.28501 11.30815,-1.79902 16.96222,-2.05602 11.56515,0 22.8733,1.54202 34.18144,3.85505 11.30815,2.05602 22.6163,4.62606 34.18145,6.68208 5.91108,1.02802 11.56515,1.79903 17.73323,2.05603 5.91108,0.257 11.82215,0.257 17.73323,0.257 23.3873,-0.514 46.77461,-3.08404 69.90491,-6.16808 23.1303,-3.08404 46.0036,-6.16808 68.87689,-7.45309 22.10229,-1.54202 44.71859,1.02801 66.56387,5.91107 3.85505,0.77101 7.4531,1.79903 11.30815,2.82704 -5.91108,0.257 -12.07916,1.02801 -17.73323,2.82704 -7.4531,2.31303 -14.39219,5.39707 -20.81727,10.02313 -6.16808,4.36906 -11.82216,9.50912 -16.44822,15.6772 -4.62606,6.16808 -8.2241,13.10717 -10.53713,20.30322 -1.79903,5.6541 -2.82704,11.5652 -3.08405,17.2193 h 6.42509 c 0.77101,-5.1401 1.79902,-10.0232 3.59805,-14.9062 2.31303,-6.42511 5.91107,-12.07918 10.28013,-17.21925 4.36906,-5.14006 9.50912,-9.25212 15.4202,-12.85016 5.65407,-3.34105 11.82215,-5.91108 18.24724,-7.4531 6.42508,-1.54202 12.85016,-1.79903 19.53225,-1.28502 13.10717,1.28502 26.21434,6.16808 38.5505,12.07916 12.59317,5.91108 24.67232,13.10717 37.26549,20.30326 6.16808,3.59801 12.59316,6.93911 19.27525,10.28011 l 3.59804,3.5981 c 2.31303,2.313 4.36906,4.883 6.42509,7.4531 h 57.82575 c -6.16808,-12.8502 -12.85017,-25.70036 -20.56027,-38.29353 -4.36906,-6.16808 -8.48111,-12.85017 -13.10717,-19.27525 m 68.10589,-680.03084 c 0,8.22411 0.77101,16.70522 2.05602,24.92932 -5.91107,-12.59316 -11.82215,-25.18632 -17.73323,-38.03649 -8.99511,-19.78926 -17.21922,-40.09252 -23.3873,-60.90979 -6.16808,-20.81727 -10.02313,-42.40555 -9.25212,-64.50784 -1.79902,21.84528 1.28502,43.94757 6.93909,65.02184 5.39707,21.33128 13.10717,41.89155 21.33128,62.19481 8.2241,20.30327 16.96222,40.34953 25.18632,60.39579 2.31303,5.39707 4.36906,10.79414 6.42509,16.19121 v -24.15832 c -1.02802,-3.34104 -1.79903,-6.93909 -2.57004,-10.28013 -2.31303,-10.28013 -3.59804,-20.56027 -3.85505,-31.0974 -0.257,-10.53714 0.25701,-20.81727 2.57004,-31.09741 1.02801,-4.62606 2.31303,-9.25212 4.11205,-13.62117 v -8.48111 c -3.59805,6.68208 -6.42508,13.87818 -8.22411,21.07427 -2.57003,10.79414 -3.59804,21.58828 -3.59804,32.38242 M 815.9026,607.8165 c -0.77101,2.05602 -1.54202,4.11205 -2.05603,6.16808 -12.59316,-12.59316 -24.41532,-25.18633 -34.69545,-39.06451 l -4.36906,-5.91107 c -1.28502,-1.79903 -2.57003,-3.59805 -4.11205,-5.39707 -2.57004,-3.85505 -5.14007,-7.4531 -7.7101,-11.30815 -4.88307,-7.7101 -9.76613,-15.67721 -13.87818,-23.64431 -17.21923,-32.38242 -28.01337,-68.10588 -29.04138,-104.60036 -0.257,-8.99512 0,-18.24724 1.02801,-27.49936 0.51401,-4.62606 1.02802,-8.99511 1.79903,-13.62117 l 2.57003,-14.13519 c 3.59805,-18.50424 8.73811,-37.00848 13.36417,-55.76972 4.88307,-18.76125 9.50913,-38.2935 11.05115,-58.08276 0.77101,-10.02313 0.77101,-20.04626 -0.51401,-30.06939 -1.02801,-10.02313 -3.34104,-19.78926 -6.42508,-29.29838 -0.51401,-1.54202 -1.02802,-3.08404 -1.54202,-4.62606 3.85505,-3.34104 7.45309,-7.19609 10.28013,-11.56515 3.34104,-5.14007 5.91108,-10.79414 7.9671,-16.44821 4.11206,-11.56515 5.91108,-23.1303 8.22411,-34.69545 2.31303,-11.56515 4.36906,-23.13031 9.25212,-33.924454 2.57003,-5.39707 5.65408,-10.28013 10.02313,-14.13518 4.36906,-4.11205 9.50913,-6.93909 15.1632,-8.48111 -5.65407,1.28502 -11.30815,3.85505 -15.93421,7.7101 -4.62606,3.85505 -8.22411,8.73811 -11.05114,14.13518 -5.39707,10.794144 -8.22411,22.359304 -11.05115,33.924454 -2.82703,11.56515 -5.39707,23.1303 -9.76612,33.66743 -3.59805,8.99512 -8.73812,17.47623 -15.93421,23.38731 -2.31303,-5.65408 -4.88306,-11.05115 -7.4531,-16.19121 -4.36905,-8.73812 -8.99511,-17.21923 -13.62117,-25.70034 -9.50913,-16.96222 -19.78926,-33.41043 -32.12542,-48.316634 11.30815,15.677214 20.30326,32.896434 28.52737,50.372664 4.11205,8.73811 7.9671,17.47623 11.56515,26.47134 3.85505,8.73812 6.93909,17.73323 9.25212,26.98535 4.62606,18.24724 5.14007,37.26549 2.31303,55.51273 -0.51401,2.57003 -0.77101,5.14006 -1.28502,7.7101 -3.85505,-16.70522 -9.76612,-32.63943 -17.99023,-47.54562 -11.56515,-21.33128 -27.75636,-40.34953 -47.28862,-54.74171 -9.50912,-7.1961 -19.01824,-14.64919 -27.24235,-23.1303 -8.48111,-8.48111 -15.6772,-17.99024 -20.30326,-29.04138 -4.62606,-11.051154 -6.68209,-22.873304 -7.1961,-34.952464 -0.514,-12.07915 0.25701,-23.90131 1.54202,-35.98046 -1.54202,11.82215 -2.57003,23.90131 -2.31303,35.98046 0.25701,12.07916 1.79903,24.15832 6.42509,35.466464 4.36905,11.30815 11.82215,21.33128 20.04626,30.0694 8.48111,8.73811 17.73323,16.44821 27.24235,23.90131 18.76125,14.39218 33.92444,33.41043 44.71858,54.4847 9.76613,19.01825 15.93421,39.57852 19.01825,60.65279 -2.82704,10.53714 -6.16808,21.07428 -9.76613,31.61141 -5.39707,16.19121 -11.05114,32.38243 -15.9342,49.34465 -1.54202,0.514 -3.34105,1.02801 -4.88307,1.54202 -6.42508,2.05602 -12.85016,3.34104 -19.53225,3.34104 -13.36418,0 -26.98535,-2.57003 -39.57852,-7.4531 -12.59316,-4.88306 -24.41531,-12.07915 -34.18144,-21.58828 -9.76613,-9.50912 -17.21922,-21.58828 -19.78926,-35.20946 2.05603,13.62118 8.99512,26.21434 18.50424,36.23748 9.50913,10.02313 21.33128,17.99023 34.18145,23.3873 12.85016,5.65407 26.47134,8.99512 40.60653,9.50912 7.19609,0.25701 14.39218,-1.02801 21.07427,-2.82703 l 1.54202,-0.51401 -3.59805,14.13518 c -1.28501,4.88307 -2.31303,10.02313 -3.08404,14.9062 -1.79902,10.02313 -2.82703,20.30326 -3.34104,30.32639 -0.77101,20.30327 1.02801,40.86353 5.14007,60.90979 3.85505,17.99024 9.50912,35.72347 16.44821,52.68569 -9.76613,6.16808 -19.53225,11.82215 -30.32639,16.19121 -6.16808,2.57003 -12.33616,4.62606 -18.76125,5.39707 -6.42508,0.77101 -13.36417,0 -19.01825,-3.85505 2.57004,2.05603 5.65408,3.59805 8.99512,4.36906 3.34104,0.77101 6.68209,1.02801 10.02313,1.02801 6.68209,-0.257 13.36418,-1.79902 19.78926,-3.85505 11.05114,-3.59805 21.33128,-8.48111 31.61141,-13.62118 4.11205,9.25212 8.48111,18.24724 13.36417,26.98535 2.57004,4.36906 5.14007,8.73812 7.7101,13.10717 1.28502,2.05603 2.82704,4.36906 4.11206,6.42509 l 1.02801,1.54202 0.51401,0.77101 0.257,0.257 v -0.257 l 0.257,0.257 2.05603,3.34104 c 11.05114,17.47623 24.15831,33.41043 37.26549,48.31663 13.10717,14.90619 26.72834,29.04138 39.0645,42.91956 7.7101,8.73811 15.1632,17.47622 21.84529,26.47134 v -67.33488 c -5.65408,-5.39707 -11.30815,-10.53713 -16.96222,-15.9342 1.79902,-14.64919 8.48111,-29.55538 16.19121,-44.20457 l 0.77101,-1.28502 v -34.95245 c -4.88307,9.25212 -10.53714,18.50424 -15.93421,28.01336 -4.62606,9.76613 -10.02313,19.78926 -14.13518,30.8404 m -630.94321,405.8083 -4.62606,-1.542 -2.31303,-0.7711 -2.57003,-0.771 c -3.59805,-1.028 -7.19609,-2.056 -10.79414,-3.084 -3.34104,-3.3411 -6.68209,-6.4251 -10.02313,-9.25212 -6.68209,-5.65408 -13.87818,-11.05115 -20.04626,-17.21923 -3.08404,-3.08404 -5.91108,-6.42508 -8.22411,-10.02313 -2.31303,-3.59805 -4.36906,-7.4531 -5.65407,-11.56515 -2.82704,-8.22411 -3.08404,-17.21922 -2.57004,-25.95734 -1.28501,8.73812 -1.28501,17.73323 1.02802,26.47135 1.02801,4.36905 2.82703,8.48111 5.14006,12.59316 2.31303,3.85505 5.14007,7.4531 7.96711,10.79414 5.91108,6.68209 12.85017,12.59317 19.01825,18.76122 l 2.31303,2.3131 c -10.79414,-3.0841 -21.58829,-6.42513 -32.63943,-8.99516 -12.33616,-3.08404 -24.92932,-5.39707 -37.77949,-6.68209 -12.85017,-1.02801 -25.95734,-1.02801 -38.5505,1.28502 -3.08404,0.51401 -6.42508,1.28502 -9.50912,2.05603 -3.08404,0.77101 -6.42509,1.79902 -9.25213,2.82703 -6.16808,2.05603 -12.07915,4.88307 -17.4762204,8.22407 -9.50913,5.3971 -17.99024,11.8222 -26.4713496,18.2473 h 5.91108 c 7.4530996,-5.1401 14.9061896,-10.0232 22.8733,-14.1352 5.39707,-2.827 11.05114,-5.3971 16.96222,-7.1961 2.82704,-1.02801 5.91108,-1.79902 8.99512,-2.31303 3.08404,-0.51401 6.16808,-1.02801 8.99511,-1.54202 12.33616,-1.54202 24.67232,-1.28502 36.75148,0.51401 12.33616,1.54202 24.41532,4.36904 36.23747,7.96714 12.07916,3.341 23.90131,7.4531 35.72347,11.5651 4.36905,1.542 8.99511,3.084 13.36417,4.3691 l 0.51401,0.771 h 1.02801 l 0.257,-0.257 0.51401,0.257 h 38.8075 c -4.88306,-1.542 -9.76612,-3.0841 -14.64919,-4.6261 z"
   id="path6"
   inkscape:connector-curvature="0"
   style="fill:#ffffff;stroke-width:2.57003331" />
<path
   class="st0"
   d="m -76.927012,1235.1617 c -16.705217,0 -29.041378,-1.2851 -37.265488,-4.1121 -8.2241,-2.827 -15.4202,-7.7101 -21.84528,-14.6492 -5.91108,-6.1681 -10.02313,-13.1072 -12.59316,-20.8173 -2.31303,-7.7101 -3.59805,-18.7612 -3.59805,-32.8964 v -106.3994 h 37.52249 v 105.1144 c 0,10.5371 0.514,17.7332 1.28501,22.1023 1.02802,4.369 2.57004,7.7101 4.88307,10.2801 3.59804,4.1121 7.9671,7.1961 13.107168,8.9951 5.140067,1.7991 12.33616,2.5701 21.588281,2.5701 H -29.6384 v 29.8124 z M -14.2182,1056.0303 v 108.1984 c 0,13.1072 0.77101,23.3873 2.31303,30.8404 1.54202,7.1961 4.1120596,13.1072 7.7100996,17.4763 7.1961,8.4811 16.1912104,14.6491 26.9853504,18.7612 11.05115,3.8551 24.41532,5.9111 40.60653,5.9111 16.19121,0 29.55539,-2.056 40.34953,-5.9111 10.79414,-3.855 19.78925,-10.2801 26.98535,-18.7612 3.59804,-4.3691 6.42508,-10.2802 7.9671,-17.9903 1.54202,-7.4531 2.57004,-17.7332 2.57004,-30.3264 v -108.1984 h -37.52249 v 107.1704 c 0,16.7052 -3.08404,28.5274 -8.99512,34.9525 -5.91108,6.6821 -16.44821,9.7661 -31.0974,9.7661 -14.64919,0 -25.18633,-3.341 -31.35441,-10.0231 -6.16808,-6.6821 -8.99512,-18.2473 -8.99512,-34.9525 V 1055.7733 H -14.2182 Z m 192.2385,179.1314 h 38.2935 l -3.85505,-140.8379 47.28862,140.8379 h 39.83551 l 46.0036,-139.5529 -3.08404,139.5529 h 37.00848 v -179.1314 h -54.74171 l -45.74659,137.4968 -45.7466,-137.4968 H 178.0203 Z m 278.33462,-179.1314 h -39.32151 v 179.1314 h 39.32151 z"
   id="path8"
   inkscape:connector-curvature="0"
   style="fill:#427488;stroke-width:2.57003331" />
<path
   class="st2"
   d="m 571.23542,1207.9193 c -16.70522,0 -28.78438,-5.1401 -36.49448,-15.4202 -7.7101,-10.2801 -11.56515,-26.4713 -11.56515,-48.5736 0,-20.3033 4.11205,-35.4665 12.07916,-45.7466 7.9671,-10.0232 20.04626,-15.1632 36.23747,-15.1632 16.44821,0 28.52737,5.14 36.49447,15.1632 7.96711,10.0231 11.82216,25.9573 11.82216,47.0316 0,21.0743 -3.85505,36.7515 -11.82216,47.0316 -8.2241,10.5371 -20.30326,15.6772 -36.75147,15.6772 m 0,-155.23 c -30.0694,0 -52.42869,7.4531 -67.33488,22.6163 -14.64919,14.9062 -22.10229,38.0365 -22.10229,68.6199 0,32.6394 7.1961,56.7977 21.58828,72.2179 14.39219,15.4202 37.00848,23.1303 67.59188,23.1303 30.3264,0 52.68569,-7.7101 67.33488,-22.8733 14.64919,-15.1632 21.84528,-38.8075 21.84528,-70.4189 0,-31.6114 -7.19609,-54.9987 -21.84528,-70.1619 -14.13519,-15.6772 -36.75148,-23.1303 -67.07787,-23.1303 m 272.68054,3.341 h -38.5505 l 1.79902,128.5017 -73.24595,-128.5017 h -47.54562 v 179.1314 h 38.5505 l -1.79902,-135.4408 76.844,135.4408 h 43.69057 v -179.1314 z"
   id="path10"
   inkscape:connector-curvature="0"
   style="fill:#859ead;stroke-width:2.57003331" />
</svg>